# xmcd
#
# Track frame offsets:
#	150
#	14337
#	29206
#	40963
#	54386
#	68247
#	81018
#	93927
#	107464
#	121558
#	135175
#	149071
#	161427
#	174731
#	187386
#	202026
#	215352
#	228878
#	241410
#	255989
#
# Disc length: 3577 seconds
#
# Revision: 1
# Processed by: cddbd v1.5.1PL0 Copyright (c) Steve Scherf et al.
# Submitted via: EasyCDDAExtractor 7.0.6.1
#
DISCID=140df714
DTITLE=Count Basie and His Orchestra - 40 Best - CD1
DYEAR=2003
DGENRE=Blues
TTITLE0=Royal Garden Blues
TTITLE1=Farewell Blues
TTITLE2=Between the devil and the deep blue sea
TTITLE3=Sub-deb blues
TTITLE4=The dirty dozen
TTITLE5=The fives
TTITLE6=Volcano
TTITLE7=How long blues
TTITLE8=Fare the honey, fare the well
TTITLE9=Shoe shine boy
TTITLE10=Riff interlude
TTITLE11=You and your love
TTITLE12=Oh! Red
TTITLE13=Hey lawdy mama
TTITLE14=I left my baby
TTITLE15=You can count on me
TTITLE16=The apple jump
TTITLE17=Pound Cake
TTITLE18=Lester leaps in
TTITLE19=Nobody knows
EXTD=
EXTT0=
EXTT1=
EXTT2=
EXTT3=
EXTT4=
EXTT5=
EXTT6=
EXTT7=
EXTT8=
EXTT9=
EXTT10=
EXTT11=
EXTT12=
EXTT13=
EXTT14=
EXTT15=
EXTT16=
EXTT17=
EXTT18=
EXTT19=
PLAYORDER=
